<svg width="24" height="24" viewBox="0 0 24 24" fill="none" xmlns="http://www.w3.org/2000/svg">
<path d="M12 2C12.2652 2 12.5196 2.10536 12.7071 2.29289C12.8947 2.48043 13 2.73478 13 3V4.055C15.174 4.302 16.665 5.351 17.611 6.665C18.662 8.123 19 9.84 19 11V14.586L20.707 16.293C20.8468 16.4329 20.942 16.611 20.9806 16.805C21.0192 16.9989 20.9994 17.2 20.9237 17.3827C20.848 17.5654 20.7199 17.7215 20.5555 17.8314C20.3911 17.9413 20.1978 18 20 18H16C16 18.66 15.81 19.628 15.211 20.46C14.576 21.341 13.526 22 12 22C10.474 22 9.42403 21.342 8.78803 20.46C8.28234 19.7387 8.00756 18.8809 8.00003 18H4.00003C3.80228 18 3.60898 17.9413 3.44457 17.8314C3.28016 17.7215 3.15202 17.5654 3.07635 17.3827C3.00068 17.2 2.98088 16.9989 3.01945 16.805C3.05802 16.611 3.15322 16.4329 3.29303 16.293L5.00003 14.586V11C5.00003 8.274 6.15803 6.474 7.66603 5.388C8.74503 4.612 9.96703 4.224 11 4.075V3C11 2.73478 11.1054 2.48043 11.2929 2.29289C11.4805 2.10536 11.7348 2 12 2ZM10 18C10 18.34 10.11 18.872 10.412 19.29C10.676 19.658 11.126 20 12 20C12.874 20 13.324 19.658 13.588 19.29C13.89 18.872 14 18.34 14 18H10ZM8.83403 7.012C7.84203 7.726 7.00003 8.926 7.00003 11V15C6.99997 15.2652 6.89458 15.5195 6.70703 15.707L6.41403 16H17.586L17.293 15.707C17.1055 15.5195 17.0001 15.2652 17 15V11C17 10.16 16.74 8.878 15.989 7.834C15.274 6.842 14.073 6 12 6C11.16 6 9.87803 6.26 8.83403 7.012Z" fill="#FFFCFB"/>
<circle cx="21" cy="3" r="3" fill="#F10101"/>
</svg>

